<?xml version="1.0" encoding="UTF-8"?>
<svg xmlns="http://www.w3.org/2000/svg" id="Filled" viewBox="0 0 512 512" width="512" height="512"><path d="M102.278,103.856A32,32,0,0,0,71.332,80H40A16,16,0,0,0,24,96h0a16,16,0,0,0,16,16H59.708a16,16,0,0,1,15.459,11.877L104,240v32h32V240Z" style="fill:#dadcde"/><path d="M296,208H424a32,32,0,0,1,32,32v80a0,0,0,0,1,0,0H264a0,0,0,0,1,0,0V240A32,32,0,0,1,296,208Z" style="fill:#7e8589"/><path d="M456,240H264a32,32,0,0,1,32-32H424A32,32,0,0,1,456,240Z" style="fill:#6a7073"/><path d="M472,384H104a16,16,0,0,1-16-16V256a16,16,0,0,1,16-16H239.379a199.953,199.953,0,0,1,48.507,5.972L475.881,312A16,16,0,0,1,488,327.522V368A16,16,0,0,1,472,384Z" style="fill:#75ab7d"/><path d="M488,352v16a16,16,0,0,1-16,16H104a16,16,0,0,1-16-16V352Z" style="fill:#6a9c72"/><path d="M263.96,241.52A32,32,0,0,1,232,272H88V256a16,16,0,0,1,16-16H239.38A199.877,199.877,0,0,1,263.96,241.52Z" style="fill:#6a7073"/><circle cx="392" cy="384" r="48" style="fill:#6a7073"/><circle cx="392" cy="384" r="16" style="fill:#dadcde"/><circle cx="200" cy="368" r="64" style="fill:#6a7073"/><circle cx="200" cy="368" r="32" style="fill:#dadcde"/><path d="M478.216,304.341,464,299.348V240a40.045,40.045,0,0,0-40-40H296a40.059,40.059,0,0,0-39.328,32.741c-5.75-.48-114.412-.741-114.412-.741L110.043,101.933l-.028-.113A40.027,40.027,0,0,0,71.332,72H40a24,24,0,0,0,0,48H59.708a8.01,8.01,0,0,1,7.715,5.885l26.86,108.178A24.029,24.029,0,0,0,80,256V368a24.027,24.027,0,0,0,24,24h28.128a71.986,71.986,0,0,0,135.744,0h68.709a55.992,55.992,0,0,0,110.838,0H472a24.027,24.027,0,0,0,24-24V327.522A23.964,23.964,0,0,0,478.216,304.341ZM296,216H424a24.039,24.039,0,0,1,22.624,16H273.376A24.039,24.039,0,0,1,296,216Zm152,32v45.728L317.8,248Zm-208.621,0c5.012,0,10.022.219,15.017.611A24.035,24.035,0,0,1,232,264H96v-8a8.009,8.009,0,0,1,8-8ZM82.932,121.949c-.012-.045-.023-.09-.035-.134A24.03,24.03,0,0,0,59.708,104H40a8,8,0,0,1,0-16H71.332a24.017,24.017,0,0,1,23.2,17.841L125.777,232H110.256ZM128.455,376H104a8.009,8.009,0,0,1-8-8v-8h32.455a70.557,70.557,0,0,0,0,16ZM200,424a56,56,0,1,1,56-56A56.063,56.063,0,0,1,200,424Zm136.581-48H271.545a70.557,70.557,0,0,0,0-16h69.869A55.52,55.52,0,0,0,336.581,376ZM392,424a40,40,0,1,1,40-40A40.045,40.045,0,0,1,392,424Zm88-56a8.009,8.009,0,0,1-8,8H447.419a55.52,55.52,0,0,0-4.833-16H480Zm0-24H431.138a55.868,55.868,0,0,0-78.276,0h-84.99a71.986,71.986,0,0,0-135.744,0H96V280H232a40.064,40.064,0,0,0,38.571-29.427c5.043.83,10.056,1.841,15.018,3.072l187.64,65.9q.351.123.711.214a7.987,7.987,0,0,1,6.06,7.76Z"/><path d="M392,360a24,24,0,1,0,24,24A24.027,24.027,0,0,0,392,360Zm0,32a8,8,0,1,1,8-8A8.009,8.009,0,0,1,392,392Z"/><path d="M200,328a40,40,0,1,0,40,40A40.045,40.045,0,0,0,200,328Zm0,64a24,24,0,1,1,24-24A24.028,24.028,0,0,1,200,392Z"/></svg>
