<?xml version="1.0" encoding="iso-8859-1"?>
<!-- Generator: Adobe Illustrator 19.0.0, SVG Export Plug-In . SVG Version: 6.00 Build 0)  -->
<svg version="1.1" id="Capa_1" xmlns="http://www.w3.org/2000/svg" xmlns:xlink="http://www.w3.org/1999/xlink" x="0px" y="0px"
	 viewBox="0 0 512 512" style="enable-background:new 0 0 512 512;" xml:space="preserve">
<g>
	<path style="fill:#83AA2E;" d="M437.892,211.156c-1.636-3.942-6.156-5.812-10.097-4.177c-1.012,0.42-15.296,6.503-27.026,19.314
		v-85.758c0-4.267-3.459-7.727-7.727-7.727s-7.727,3.459-7.727,7.727v44.015c-11.729-12.812-26.015-18.895-27.026-19.315
		c-3.941-1.634-8.463,0.235-10.097,4.177c-1.635,3.941,0.235,8.463,4.177,10.097c0.33,0.136,32.947,14.005,32.947,43.184v45.341
		c-11.729-12.812-26.015-18.895-27.026-19.315c-3.941-1.634-8.463,0.235-10.097,4.177c-1.635,3.941,0.235,8.463,4.177,10.097
		c0.33,0.136,32.947,14.005,32.947,43.184v113.88c0,4.267,3.459,7.727,7.727,7.727s7.727-3.459,7.727-7.727V264.438
		c0-28.945,32.543-43.013,32.963-43.191C437.662,219.606,439.525,215.092,437.892,211.156z"/>
	<path style="fill:#83AA2E;" d="M134.442,229.755c0-36.972,40.182-55.345,40.603-55.533c3.894-1.728,5.655-6.283,3.934-10.182
		c-1.723-3.903-6.286-5.671-10.189-3.948c-1.264,0.558-20.199,9.128-34.348,26.856V77.382c0-4.267-3.459-7.727-7.727-7.727
		c-4.267,0-7.727,3.459-7.727,7.727v58.23c-14.15-17.727-33.085-26.298-34.348-26.856c-3.906-1.723-8.466,0.044-10.189,3.948
		c-1.724,3.904,0.045,8.466,3.948,10.189c0.406,0.179,40.589,18.346,40.589,55.527v59.861
		c-14.15-17.727-33.085-26.298-34.348-26.856c-3.906-1.723-8.466,0.044-10.189,3.948c-1.724,3.904,0.045,8.466,3.948,10.189
		c0.406,0.179,40.589,18.346,40.589,55.526v64.239c-14.15-17.727-33.085-26.298-34.348-26.856
		c-3.906-1.724-8.466,0.044-10.189,3.948c-1.724,3.904,0.045,8.466,3.948,10.189c0.406,0.179,40.589,18.346,40.589,55.527v53.893
		c0,4.267,3.459,7.727,7.727,7.727c4.267,0,7.727-3.459,7.727-7.727V332.425c0-36.972,40.182-55.345,40.603-55.533
		c3.894-1.728,5.655-6.283,3.934-10.182c-1.723-3.904-6.286-5.671-10.189-3.948c-1.264,0.558-20.199,9.129-34.348,26.856V229.755z"
		/>
</g>
<g>
	<path style="fill:#9CDD05;" d="M185.581,3.031c-0.962-2.191-3.359-3.415-5.701-2.922c-28.369,5.982-61.643,48.542-60.611,77.506
		c0.085,2.392,1.851,4.423,4.209,4.829C168.424,90.174,203.919,44.794,185.581,3.031z"/>
	<path style="fill:#9CDD05;" d="M253.368,133.644c0.202-2.193-1.183-4.245-3.287-4.891c-25.5-7.826-71.245,11.603-83.321,35.376
		c-0.997,1.963-0.481,4.385,1.236,5.762C200.728,196.14,249.519,175.43,253.368,133.644z"/>
	<path style="fill:#9CDD05;" d="M0.063,82.25c-0.202-2.193,1.183-4.246,3.287-4.892c25.5-7.826,71.245,11.603,83.321,35.376
		c0.997,1.963,0.481,4.385-1.236,5.762C52.703,144.745,3.912,124.036,0.063,82.25z"/>
	<path style="fill:#9CDD05;" d="M253.368,236.432c0.202-2.193-1.183-4.245-3.287-4.891c-25.5-7.826-71.245,11.603-83.321,35.376
		c-0.997,1.963-0.481,4.385,1.236,5.762C200.728,298.928,249.519,278.218,253.368,236.432z"/>
	<path style="fill:#9CDD05;" d="M0.063,185.038c-0.202-2.193,1.183-4.245,3.287-4.891c25.5-7.826,71.245,11.603,83.321,35.376
		c0.997,1.963,0.481,4.385-1.236,5.762C52.703,247.534,3.912,226.825,0.063,185.038z"/>
	<path style="fill:#9CDD05;" d="M0.063,290.498c-0.202-2.193,1.183-4.245,3.287-4.891c25.5-7.826,71.245,11.603,83.321,35.376
		c0.997,1.963,0.481,4.385-1.236,5.762C52.703,352.994,3.912,332.284,0.063,290.498z"/>
	<path style="fill:#9CDD05;" d="M439.254,80.079c-0.782-1.782-2.732-2.777-4.636-2.376c-23.068,4.864-50.124,39.471-49.285,63.023
		c0.069,1.945,1.505,3.596,3.422,3.926C425.303,150.938,454.165,114.039,439.254,80.079z"/>
	<path style="fill:#9CDD05;" d="M496.028,186.286c0.164-1.783-0.962-3.452-2.673-3.977c-20.735-6.364-57.932,9.435-67.752,28.765
		c-0.811,1.596-0.391,3.565,1.005,4.685C453.224,237.104,492.898,220.264,496.028,186.286z"/>
	<path style="fill:#9CDD05;" d="M290.055,144.495c-0.164-1.783,0.962-3.452,2.673-3.977c20.735-6.364,57.932,9.435,67.752,28.765
		c0.811,1.596,0.391,3.565-1.005,4.685C332.859,195.313,293.185,178.473,290.055,144.495z"/>
	<path style="fill:#9CDD05;" d="M290.055,228.077c-0.164-1.783,0.962-3.452,2.673-3.977c20.735-6.364,57.932,9.435,67.752,28.765
		c0.811,1.596,0.391,3.565-1.005,4.685C332.859,278.894,293.185,262.055,290.055,228.077z"/>
</g>
<path style="fill:#9B6F43;" d="M419.135,416.798c-10.955-26.17-38.427-44.739-70.607-44.739c-20.54,0-39.157,7.573-52.796,19.848
	c-12.484-4.124-25.823-6.369-39.688-6.369c-29.22,0-56.12,9.916-77.531,26.561c-6.475-3.435-13.856-5.39-21.696-5.39
	c-13.155,0-25.021,5.488-33.458,14.288c-8.88-2.738-18.306-4.228-28.083-4.228c-51.203,0-92.97,40.411-95.142,91.08
	C0.035,510.114,1.865,512,4.133,512h503.82c2.268,0,4.098-1.886,4.001-4.151C509.814,457.949,469.274,417.998,419.135,416.798z"/>
<g>
	<path style="fill:#94C609;" d="M139.815,77.615c-0.827-23.222,21.134-57.434,46.82-71.993c-0.333-0.871-0.679-1.737-1.055-2.592
		c-0.962-2.191-3.359-3.414-5.701-2.922c-28.369,5.983-61.643,48.542-60.611,77.506c0.085,2.392,1.851,4.423,4.209,4.829
		c6.675,1.148,13.482,1.09,20.091-0.121C141.445,81.747,139.894,79.846,139.815,77.615z"/>
	<path style="fill:#94C609;" d="M188.543,169.89c-1.718-1.377-2.234-3.799-1.237-5.762c8.574-16.877,34.929-32.366,59.416-36.201
		c-26.537-5.344-68.553,13.741-79.963,36.201c-0.997,1.963-0.481,4.385,1.236,5.762c11.959,9.59,27.797,13.694,43.271,10.589
		C202.984,178.826,195.167,175.202,188.543,169.89z"/>
	<path style="fill:#94C609;" d="M20.609,82.25c-0.202-2.193,1.183-4.245,3.287-4.891c1.064-0.327,2.196-0.591,3.358-0.826
		c-9.181-1.438-17.492-1.143-23.906,0.826c-2.105,0.646-3.488,2.7-3.287,4.891c2.894,31.411,32.326,52.89,62.648,46.835
		C39.654,124.459,22.735,105.318,20.609,82.25z"/>
	<path style="fill:#94C609;" d="M188.543,272.679c-1.718-1.378-2.234-3.799-1.237-5.762c8.582-16.893,34.952-32.37,59.416-36.202
		c-26.536-5.343-68.553,13.741-79.963,36.202c-0.997,1.963-0.481,4.385,1.236,5.762c11.959,9.59,27.797,13.694,43.271,10.589
		C202.983,281.615,195.167,277.991,188.543,272.679z"/>
	<path style="fill:#94C609;" d="M20.609,185.038c-0.202-2.192,1.183-4.245,3.287-4.891c1.064-0.327,2.196-0.591,3.358-0.826
		c-9.181-1.438-17.492-1.143-23.906,0.826c-2.105,0.646-3.488,2.7-3.287,4.891c2.893,31.403,32.318,52.891,62.648,46.835
		C39.695,227.258,22.738,208.148,20.609,185.038z"/>
	<path style="fill:#94C609;" d="M20.609,290.498c-0.202-2.192,1.183-4.245,3.287-4.891c1.064-0.326,2.196-0.591,3.358-0.826
		c-9.181-1.438-17.492-1.143-23.906,0.826c-2.105,0.646-3.488,2.7-3.287,4.891c2.893,31.401,32.319,52.892,62.648,46.835
		C39.69,332.716,22.738,313.601,20.609,290.498z"/>
	<path style="fill:#94C609;" d="M405.879,140.726c-0.65-18.247,15.703-44.049,34.9-56.614c-0.453-1.363-0.946-2.714-1.527-4.034
		c-0.782-1.782-2.733-2.777-4.636-2.376c-23.067,4.864-50.124,39.471-49.285,63.024c0.069,1.945,1.505,3.596,3.422,3.926
		c6.312,1.086,12.767,0.838,18.946-0.663C406.638,143.266,405.927,142.072,405.879,140.726z"/>
	<path style="fill:#94C609;" d="M447.155,215.76c-1.397-1.12-1.816-3.089-1.005-4.685c6.659-13.108,26.664-25.357,46.134-29.054
		c-21.132-5.541-57.083,10.158-66.681,29.054c-0.811,1.596-0.391,3.565,1.005,4.685c10.219,8.196,23.922,11.447,37.103,8.163
		C457.693,222.43,452.025,219.665,447.155,215.76z"/>
	<path style="fill:#94C609;" d="M310.602,144.495c-0.164-1.783,0.962-3.452,2.673-3.977c0.346-0.106,0.712-0.194,1.071-0.288
		c-8.327-1.581-15.9-1.467-21.618,0.288c-1.712,0.525-2.838,2.195-2.673,3.977c2.415,26.207,27.539,43.915,52.863,37.637
		C324.583,177.562,312.221,162.073,310.602,144.495z"/>
	<path style="fill:#94C609;" d="M310.602,228.077c-0.164-1.783,0.962-3.452,2.673-3.977c0.346-0.106,0.712-0.194,1.071-0.288
		c-8.327-1.581-15.9-1.467-21.618,0.288c-1.712,0.525-2.838,2.195-2.673,3.977c2.415,26.206,27.539,43.916,52.863,37.637
		C324.583,261.144,312.221,245.655,310.602,228.077z"/>
</g>
<path style="fill:#875E39;" d="M20.678,507.849c2.026-47.22,38.44-85.526,84.831-90.522c-3.362-0.362-6.776-0.558-10.235-0.558
	c-51.203,0-92.97,40.411-95.142,91.08C0.035,510.115,1.865,512,4.133,512h20.547C22.413,512,20.581,510.115,20.678,507.849z"/>
<g>
</g>
<g>
</g>
<g>
</g>
<g>
</g>
<g>
</g>
<g>
</g>
<g>
</g>
<g>
</g>
<g>
</g>
<g>
</g>
<g>
</g>
<g>
</g>
<g>
</g>
<g>
</g>
<g>
</g>
</svg>
